<svg id="Layer_2" data-name="Layer 2" xmlns="http://www.w3.org/2000/svg" width="80" height="80" viewBox="0 0 80 80">
  <g id="Layer_1" data-name="Layer 1">
    <path id="路径_33" data-name="路径 33" d="M24.463,33.617,40,18.08,55.544,33.623l9.04-9.04L40,0,15.424,24.576l9.04,9.04M0,40l9.04-9.042L18.08,40l-9.04,9.04Zm24.463,6.384L40,61.92,55.544,46.377l9.045,9.035,0,0L40,80,15.424,55.424l-.013-.013,9.053-9.028M61.92,40l9.04-9.04L80,40l-9.04,9.04Z" fill="#f3ba2f"/>
    <path id="路径_34" data-name="路径 34" d="M983.62,973.4h0L973.41,963.19l-7.55,7.547h0l-.867.868-1.789,1.789-.014.014.014.015L973.41,983.63l10.214-10.215.005-.006-.009-.005" transform="translate(-933.41 -933.41)" fill="#f3ba2f"/>
  </g>
</svg>
