<svg id="Layer_1" data-name="Layer 1" xmlns="http://www.w3.org/2000/svg" width="58.808" height="58.808" viewBox="0 0 58.808 58.808">
  <path id="路径_33" data-name="路径 33" d="M17.983,24.712,29.4,13.291,40.83,24.717l6.645-6.645L29.4,0,11.338,18.066l6.645,6.645M0,29.4l6.646-6.646L13.291,29.4,6.645,36.048ZM17.983,34.1,29.4,45.517,40.83,34.092l6.649,6.642,0,0L29.4,58.808,11.338,40.742l-.009-.009L17.984,34.1m27.534-4.69,6.646-6.646,6.645,6.645-6.645,6.646Z" fill="#f3ba2f"/>
  <path id="路径_34" data-name="路径 34" d="M978.208,970.7h0L970.7,963.19l-5.55,5.548h0l-.638.638-1.315,1.315-.01.01.01.011,7.5,7.5,7.509-7.509,0,0-.007,0" transform="translate(-941.299 -941.299)" fill="#f3ba2f"/>
</svg>
