<svg xmlns="http://www.w3.org/2000/svg" width="80" height="91.228" viewBox="0 0 80 91.228">
  <g id="组_1" data-name="组 1" transform="translate(-16.435 -72.595)">
    <path id="Path" d="M5.05-10a2.3,2.3,0,0,1,1.142.3l62.65,35.854a2.3,2.3,0,0,1,1.157,2v14.3a2.3,2.3,0,0,1-1.142,1.986L6.207,80.916a2.3,2.3,0,0,1-2.321,0L-8.865,73.423A2.3,2.3,0,0,1-10,71.441v-72A2.3,2.3,0,0,1-8.825-2.564L3.927-9.707A2.3,2.3,0,0,1,5.05-10ZM65.4,29.485,5.038-5.06-5.4.789V70.125L5.055,76.267,65.4,41.13Z" transform="translate(26.435 82.595)" fill="#246cad"/>
    <path id="Path_2" data-name="Path 2" d="M-7.7,51.79a2.3,2.3,0,0,1-1.164-.316A2.3,2.3,0,0,1-10,49.491V-7.7A2.3,2.3,0,0,1-7.7-10,2.3,2.3,0,0,1-5.4-7.7V45.575L12.789,35.419,3.814,30.332a2.3,2.3,0,0,1-1.165-2V13.74a2.3,2.3,0,0,1,3.443-1.993l50,28.711A2.3,2.3,0,0,1,53.8,44.445L7.246,17.711v9.282l11.365,6.441a2.3,2.3,0,0,1-.013,4.007L-6.581,51.5A2.3,2.3,0,0,1-7.7,51.79Z" transform="translate(39.187 82.595)" fill="#246cad"/>
    <path id="Path_3" data-name="Path 3" d="M-7.7,30.6a2.3,2.3,0,0,1-1.988-1.141,2.3,2.3,0,0,1,.828-3.143L37.211-.535,28.36-5.719a2.3,2.3,0,0,1-.822-3.145,2.3,2.3,0,0,1,3.145-.822L42.929-2.514A2.3,2.3,0,0,1,44.066-.528a2.3,2.3,0,0,1-1.141,1.983L-6.545,30.29A2.288,2.288,0,0,1-7.7,30.6Z" transform="translate(26.982 125.731)" fill="#246cad"/>
    <path id="Path_4" data-name="Path 4" d="M-6.9,9.614a2.3,2.3,0,0,1-2.3-2.3V-6.706A2.3,2.3,0,0,1-6.9-9a2.3,2.3,0,0,1,2.3,2.3V7.316A2.3,2.3,0,0,1-6.9,9.614Z" transform="translate(51.05 117.321)" fill="#246cad"/>
  </g>
</svg>
