 <svg xmlns="http://www.w3.org/2000/svg" width="187" height="50" viewBox="0 0 187 50">
  <g id="组_199" data-name="组 199" transform="translate(-1254 -211)">
    <g id="组件_9_1" data-name="组件 9 – 1" transform="translate(1254 211)">
      <g id="矩形_248" data-name="矩形 248" fill="#d4e05c" stroke="#707070" stroke-width="1">
        <path d="M0,0H168a19,19,0,0,1,19,19V50a0,0,0,0,1,0,0H19A19,19,0,0,1,0,31V0A0,0,0,0,1,0,0Z" stroke="none"/>
        <path d="M1,.5H168A18.5,18.5,0,0,1,186.5,19V49a.5.5,0,0,1-.5.5H19A18.5,18.5,0,0,1,.5,31V1A.5.5,0,0,1,1,.5Z" fill="none"/>
      </g>
      <text id="Epoch_1" data-name="Epoch 1" transform="translate(21 37)" fill="#1b1c22" font-size="40" font-family="InkFree, Ink Free" letter-spacing="0.05em"><tspan x="0" y="0">Epoch 1</tspan></text>
    </g>
  </g>
</svg>
