<svg width="56" height="56" viewBox="0 0 56 56" fill="none" xmlns="http://www.w3.org/2000/svg">
<g filter="url(#filter0_d_1613_4566)">
<path d="M48 42L8 2H29.7284L48 19.0732V42Z" fill="#CD7A37"/>
<path d="M25.1311 11.9801C25.0591 11.9079 25.0596 11.8362 25.1327 11.765L29.4273 7.58362C29.5004 7.51246 29.573 7.51299 29.645 7.58519L30.2998 8.24139C30.3549 8.29661 30.3736 8.3621 30.356 8.43787L29.2627 12.6424C29.254 12.6676 29.256 12.6824 29.2688 12.6867C29.2858 12.6953 29.3029 12.6912 29.3201 12.6744L31.9511 10.1129C32.0241 10.0417 32.0967 10.0422 32.1687 10.1144L32.8362 10.7834C32.9083 10.8556 32.9078 10.9273 32.8347 10.9984L28.5401 15.1798C28.467 15.251 28.3944 15.2505 28.3224 15.1783L27.6739 14.5284C27.6231 14.4775 27.6065 14.4099 27.6242 14.3257L28.7369 10.0896C28.7456 10.0644 28.7415 10.0475 28.7245 10.039C28.7117 10.0346 28.6967 10.0409 28.6795 10.0576L26.0227 12.657C25.9496 12.7281 25.877 12.7276 25.805 12.6554L25.1311 11.9801ZM36.1028 15.3821C36.0297 15.4533 35.9571 15.4527 35.8851 15.3805L33.8381 13.3291C33.8127 13.3036 33.7871 13.3034 33.7613 13.3285L32.7747 14.2891C32.7489 14.3143 32.7487 14.3396 32.7741 14.365L34.1028 15.6965C34.1748 15.7688 34.1743 15.8404 34.1012 15.9116L33.5402 16.4578C33.4671 16.529 33.3946 16.5284 33.3225 16.4562L31.9939 15.1247C31.9685 15.0992 31.9429 15.0991 31.9171 15.1242L30.8853 16.1287C30.8595 16.1538 30.8593 16.1791 30.8848 16.2046L32.9317 18.256C33.0038 18.3282 33.0033 18.3999 32.9302 18.4711L32.3692 19.0173C32.2961 19.0884 32.2235 19.0879 32.1515 19.0157L29.2781 16.1361C29.2061 16.0639 29.2066 15.9922 29.2797 15.921L33.5743 11.7396C33.6474 11.6685 33.7199 11.669 33.792 11.7412L36.6654 14.6208C36.7374 14.693 36.7369 14.7647 36.6638 14.8359L36.1028 15.3821ZM33.8923 20.7603C33.8245 20.6924 33.8165 20.6206 33.8683 20.5451L37.044 15.2424C37.0484 15.2298 37.057 15.2172 37.0699 15.2047C37.1301 15.1461 37.1941 15.1507 37.2619 15.2187L37.9866 15.945C38.0502 16.0087 38.0561 16.0783 38.0043 16.1538L36.029 19.2578C36.016 19.2788 36.0159 19.2956 36.0286 19.3084C36.0413 19.3211 36.0584 19.3212 36.0798 19.3087L39.2249 17.377C39.3021 17.327 39.3725 17.3338 39.436 17.3975L40.1544 18.1175C40.2222 18.1854 40.2302 18.2572 40.1784 18.3327L38.2285 21.4621C38.2155 21.4831 38.2133 21.4978 38.2218 21.5063C38.2345 21.5191 38.2516 21.5192 38.273 21.5067L41.418 19.575C41.4952 19.525 41.5656 19.5318 41.6292 19.5955L42.3221 20.2899C42.3603 20.3282 42.3728 20.3662 42.3597 20.4041C42.3552 20.442 42.3315 20.4734 42.2886 20.4984L36.9705 23.6541C36.8933 23.7042 36.8208 23.6952 36.753 23.6272L36.0537 22.9264C35.9859 22.8585 35.9779 22.7867 36.0296 22.7112L38.1345 19.4058C38.1475 19.3848 38.1476 19.368 38.1349 19.3552C38.1222 19.3425 38.1051 19.3424 38.0837 19.3548L34.7519 21.4307C34.6747 21.4807 34.6043 21.4739 34.5407 21.4102L33.8923 20.7603Z" fill="white"/>
</g>
<defs>
<filter id="filter0_d_1613_4566" x="0" y="0" width="56" height="56" filterUnits="userSpaceOnUse" color-interpolation-filters="sRGB">
<feFlood flood-opacity="0" result="BackgroundImageFix"/>
<feColorMatrix in="SourceAlpha" type="matrix" values="0 0 0 0 0 0 0 0 0 0 0 0 0 0 0 0 0 0 127 0" result="hardAlpha"/>
<feOffset dy="6"/>
<feGaussianBlur stdDeviation="4"/>
<feComposite in2="hardAlpha" operator="out"/>
<feColorMatrix type="matrix" values="0 0 0 0 0.0297917 0 0 0 0 0.0685667 0 0 0 0 0.1375 0 0 0 1 0"/>
<feBlend mode="normal" in2="BackgroundImageFix" result="effect1_dropShadow_1613_4566"/>
<feBlend mode="normal" in="SourceGraphic" in2="effect1_dropShadow_1613_4566" result="shape"/>
</filter>
</defs>
</svg>
