<svg width="57" height="58" viewBox="0 0 57 58" fill="none" xmlns="http://www.w3.org/2000/svg">
<g filter="url(#filter0_d_1613_4569)">
<path d="M48.5 43.5L8 2.5H30L48.5 20V43.5Z" fill="#203B60"/>
<path d="M24.1469 12.4938C24.0922 12.4383 24.0779 12.3682 24.1039 12.2835L25.0703 9.77665C25.0832 9.74705 25.0792 9.72156 25.0581 9.7002L24.4832 9.11691C24.4579 9.09127 24.4325 9.09108 24.4068 9.11636L22.6954 10.8032C22.6228 10.8748 22.5506 10.8743 22.479 10.8017L21.803 10.1158C21.7314 10.0432 21.732 9.97104 21.8046 9.89944L26.0799 5.68545C26.1526 5.61385 26.2247 5.61437 26.2963 5.68701L28.0716 7.48815C28.3411 7.76164 28.5193 8.0578 28.6061 8.37663C28.7014 8.69552 28.7012 9.01161 28.6056 9.32488C28.5142 9.64243 28.3361 9.93177 28.0711 10.1929C27.7806 10.4793 27.459 10.6531 27.1064 10.7142C26.7538 10.7753 26.4084 10.7197 26.0702 10.5476C26.0533 10.539 26.0364 10.5388 26.0193 10.5472C26.0066 10.5514 26.0001 10.5619 26 10.5789L25.0649 13.1687C25.0604 13.1984 25.0475 13.2237 25.0261 13.2448C25.0048 13.2658 24.9793 13.2741 24.9496 13.2697C24.9199 13.2652 24.8903 13.248 24.8609 13.2181L24.1469 12.4938ZM26.3356 7.29105C26.3103 7.26542 26.2849 7.26523 26.2592 7.2905L25.1824 8.3519C25.1568 8.37717 25.1566 8.40262 25.1818 8.42826L26.0032 9.26153C26.1801 9.44101 26.3745 9.53575 26.5866 9.54577C26.8072 9.55585 27.0029 9.47665 27.1738 9.30817C27.3448 9.1397 27.4268 8.94512 27.4199 8.72445C27.4215 8.50384 27.3338 8.3038 27.1569 8.12432L26.3356 7.29105ZM32.4671 13.2938C32.3944 13.3654 32.3223 13.3649 32.2507 13.2922L30.2164 11.2283C30.1911 11.2027 30.1657 11.2025 30.14 11.2278L29.1593 12.1944C29.1337 12.2196 29.1335 12.2451 29.1588 12.2707L30.4792 13.6104C30.5508 13.683 30.5503 13.7552 30.4776 13.8268L29.92 14.3764C29.8473 14.448 29.7752 14.4475 29.7036 14.3748L28.3832 13.0352C28.3579 13.0096 28.3325 13.0094 28.3068 13.0346L27.2813 14.0455C27.2556 14.0708 27.2554 14.0962 27.2807 14.1219L29.315 16.1858C29.3867 16.2585 29.3861 16.3306 29.3135 16.4022L28.7558 16.9518C28.6832 17.0234 28.6111 17.0229 28.5395 16.9503L25.6838 14.0531C25.6122 13.9804 25.6127 13.9083 25.6854 13.8367L29.9543 9.62901C30.0269 9.55741 30.099 9.55793 30.1706 9.63058L33.0263 12.5278C33.0979 12.6004 33.0974 12.6726 33.0247 12.7442L32.4671 13.2938ZM36.7727 16.3287C36.8443 16.4013 36.8438 16.4734 36.7711 16.545L36.2071 17.101C36.1344 17.1726 36.0623 17.1721 35.9907 17.0995L34.8977 15.9906C34.8724 15.9649 34.847 15.9647 34.8213 15.99L31.2639 19.4964C31.1913 19.568 31.1191 19.5675 31.0475 19.4948L30.3715 18.809C30.2999 18.7364 30.3005 18.6642 30.3731 18.5926L33.9305 15.0862C33.9562 15.061 33.9563 15.0355 33.9311 15.0099L32.8697 13.933C32.7981 13.8604 32.7986 13.7883 32.8712 13.7167L33.4353 13.1607C33.5079 13.0891 33.5801 13.0896 33.6517 13.1623L36.7727 16.3287ZM33.069 21.5457C32.9974 21.4731 32.9979 21.401 33.0706 21.3293L37.3395 17.1217C37.4121 17.0501 37.4842 17.0506 37.5558 17.1232L38.2318 17.8091C38.3034 17.8817 38.3029 17.9539 38.2303 18.0255L33.9614 22.2331C33.8887 22.3047 33.8166 22.3042 33.745 22.2316L33.069 21.5457ZM37.0726 25.6076C37.0178 25.552 37.0035 25.4819 37.0296 25.3972L37.9959 22.8904C38.0089 22.8608 38.0048 22.8353 37.9837 22.8139L37.4088 22.2306C37.3835 22.205 37.3581 22.2048 37.3325 22.2301L35.621 23.9169C35.5484 23.9885 35.4763 23.988 35.4047 23.9154L34.7287 23.2295C34.6571 23.1569 34.6576 23.0848 34.7302 23.0132L39.0055 18.7992C39.0782 18.7276 39.1503 18.7281 39.2219 18.8007L40.9972 20.6019C41.2668 20.8754 41.445 21.1715 41.5318 21.4904C41.627 21.8092 41.6269 22.1253 41.5313 22.4386C41.4399 22.7562 41.2617 23.0455 40.9968 23.3066C40.7062 23.593 40.3846 23.7668 40.032 23.8279C39.6794 23.889 39.3341 23.8334 38.9959 23.6613C38.979 23.6527 38.962 23.6526 38.945 23.6609C38.9322 23.6651 38.9258 23.6756 38.9256 23.6926L37.9905 26.2824C37.986 26.3121 37.9731 26.3374 37.9518 26.3585C37.9304 26.3796 37.9049 26.3879 37.8752 26.3834C37.8456 26.379 37.816 26.3618 37.7865 26.3319L37.0726 25.6076ZM39.2612 20.4048C39.236 20.3791 39.2105 20.379 39.1849 20.4042L38.108 21.4656C38.0824 21.4909 38.0822 21.5163 38.1075 21.542L38.9288 22.3753C39.1057 22.5547 39.3002 22.6495 39.5122 22.6595C39.7328 22.6696 39.9285 22.5904 40.0995 22.4219C40.2704 22.2534 40.3524 22.0588 40.3455 21.8382C40.3471 21.6176 40.2595 21.4175 40.0826 21.238L39.2612 20.4048ZM45.3927 26.4075C45.3201 26.4791 45.248 26.4786 45.1764 26.406L43.142 24.342C43.1167 24.3164 43.0913 24.3162 43.0656 24.3415L42.085 25.3081C42.0593 25.3334 42.0591 25.3588 42.0844 25.3845L43.4048 26.7241C43.4764 26.7968 43.4759 26.8689 43.4033 26.9405L42.8456 27.4901C42.773 27.5617 42.7008 27.5612 42.6292 27.4886L41.3088 26.1489C41.2835 26.1233 41.2581 26.1231 41.2325 26.1484L40.2069 27.1592C40.1813 27.1845 40.1811 27.21 40.2063 27.2356L42.2407 29.2995C42.3123 29.3722 42.3118 29.4443 42.2391 29.5159L41.6815 30.0656C41.6088 30.1372 41.5367 30.1366 41.4651 30.064L38.6094 27.1668C38.5378 27.0941 38.5384 27.022 38.611 26.9504L42.8799 22.7427C42.9526 22.6711 43.0247 22.6717 43.0963 22.7443L45.9519 25.6415C46.0235 25.7142 46.023 25.7863 45.9504 25.8579L45.3927 26.4075Z" fill="white"/>
</g>
<defs>
<filter id="filter0_d_1613_4569" x="0" y="0.5" width="56.5" height="57" filterUnits="userSpaceOnUse" color-interpolation-filters="sRGB">
<feFlood flood-opacity="0" result="BackgroundImageFix"/>
<feColorMatrix in="SourceAlpha" type="matrix" values="0 0 0 0 0 0 0 0 0 0 0 0 0 0 0 0 0 0 127 0" result="hardAlpha"/>
<feOffset dy="6"/>
<feGaussianBlur stdDeviation="4"/>
<feComposite in2="hardAlpha" operator="out"/>
<feColorMatrix type="matrix" values="0 0 0 0 0.0297917 0 0 0 0 0.0685667 0 0 0 0 0.1375 0 0 0 1 0"/>
<feBlend mode="normal" in2="BackgroundImageFix" result="effect1_dropShadow_1613_4569"/>
<feBlend mode="normal" in="SourceGraphic" in2="effect1_dropShadow_1613_4569" result="shape"/>
</filter>
</defs>
</svg>
