<svg xmlns="http://www.w3.org/2000/svg" width="26.524" height="16.371" viewBox="0 0 26.524 16.371">
  <g id="组_57" data-name="组 57" transform="translate(-829.579 -558.315)">
    <g id="next_1_" data-name="next (1)" transform="translate(711.837 558.314)">
      <g id="组_38" data-name="组 38" transform="translate(117.742 0)">
        <path id="路径_16" data-name="路径 16" d="M126.4,7.736,118.825.185a.635.635,0,0,0-.9.9l7.121,7.1-7.122,7.1a.635.635,0,0,0,.9.9L126.4,8.635a.634.634,0,0,0,0-.9Z" transform="translate(-117.742 0)" fill="#ccc"/>
      </g>
    </g>
    <g id="next_1_2" data-name="next (1)" transform="translate(720.678 558.314)">
      <g id="组_38-2" data-name="组 38" transform="translate(117.742 0)">
        <path id="路径_16-2" data-name="路径 16" d="M126.4,7.736,118.825.185a.635.635,0,0,0-.9.9l7.121,7.1-7.122,7.1a.635.635,0,0,0,.9.9L126.4,8.635a.634.634,0,0,0,0-.9Z" transform="translate(-117.742 0)" fill="#ccc"/>
      </g>
    </g>
    <g id="next_1_3" data-name="next (1)" transform="translate(729.52 558.314)">
      <g id="组_38-3" data-name="组 38" transform="translate(117.742 0)">
        <path id="路径_16-3" data-name="路径 16" d="M126.4,7.736,118.825.185a.635.635,0,0,0-.9.9l7.121,7.1-7.122,7.1a.635.635,0,0,0,.9.9L126.4,8.635a.634.634,0,0,0,0-.9Z" transform="translate(-117.742 0)" fill="#ccc"/>
      </g>
    </g>
  </g>
</svg>
