<svg width="40" height="40" viewBox="0 0 40 40" fill="none" xmlns="http://www.w3.org/2000/svg">
<path d="M39.627 20C39.627 31.044 30.755 40 19.814 40C8.872 40 0 31.044 0 20C0 8.956 8.872 0 19.814 0C30.755 0 39.627 8.956 39.627 20Z" fill="#DD1438"/>
<path d="M31.178 10.3784C30.703 9.15638 29.906 8.08538 29.016 7.18738C28.0775 6.3044 26.9851 5.60079 25.793 5.11138C25.0213 4.79971 24.2115 4.59222 23.385 4.49438C20.43 4.06238 17.317 4.97838 15.059 7.26238C12.452 9.89438 11.536 13.7474 12.686 17.3344V17.3694C11.9637 17.8246 11.3021 18.3696 10.717 18.9914C9.81002 19.9514 9.07502 21.0674 8.59902 22.2894C8.1326 23.5154 7.89861 24.8176 7.90902 26.1294C7.90902 27.4624 8.18602 28.7294 8.70502 29.9074C9.18102 31.1294 9.97802 32.2004 10.867 33.0984C11.8056 33.9814 12.898 34.685 14.09 35.1744C15.257 35.6544 16.516 35.8714 17.789 35.8714C17.609 35.8714 17.432 35.8624 17.256 35.8544C18.6279 35.929 19.9999 35.7111 21.2812 35.2153C22.5625 34.7195 23.7237 33.957 24.688 32.9784C25.9686 31.6951 26.8699 30.0831 27.2925 28.3202C27.7151 26.5572 27.6426 24.7118 27.083 22.9874C27.8531 22.5216 28.5554 21.9519 29.17 21.2944C30.077 20.3344 30.813 19.2184 31.288 17.9964C31.755 16.7704 31.9897 15.4682 31.98 14.1564C31.9813 12.8552 31.7098 11.5682 31.183 10.3784M22.636 11.0894C22.567 10.7758 22.5345 10.4554 22.539 10.1344C22.896 10.1964 23.235 10.3024 23.574 10.4444C24.05 10.6444 24.464 10.9694 24.785 11.3424C25.093 11.7294 25.366 12.1474 25.52 12.6274C25.688 13.1074 25.736 13.5874 25.736 14.0674C25.6827 14.979 25.2991 15.84 24.657 16.4894L22.637 11.0944L22.636 11.0894ZM24.944 17.2544C25.005 17.1964 25.067 17.1384 25.12 17.0714C25.533 16.6364 25.793 16.1744 26.009 15.6314C26.225 15.0894 26.269 14.5024 26.269 13.9744C26.269 13.3874 26.115 12.8584 25.899 12.3784C25.683 11.8984 25.318 11.4624 24.948 11.0944C24.578 10.7694 24.102 10.4444 23.627 10.2894C23.284 10.1654 22.909 10.1114 22.531 10.0854C22.5459 9.46088 22.7039 8.84814 22.993 8.29438C23.424 8.37838 23.838 8.50738 24.239 8.69438C24.974 9.01838 25.559 9.49838 26.079 10.0274C26.555 10.6144 26.986 11.2494 27.246 11.9474C27.506 12.6454 27.616 13.3744 27.616 14.1294C27.616 14.8854 27.462 15.6314 27.141 16.2674C26.8774 16.9364 26.463 17.5356 25.93 18.0184C25.7579 18.1741 25.5755 18.3181 25.384 18.4494L24.939 17.2584L24.944 17.2544ZM25.661 19.1694C25.9361 18.9638 26.1967 18.7396 26.441 18.4984C26.978 17.9114 27.453 17.1654 27.713 16.4224C28.034 15.6184 28.144 14.8144 28.144 14.0224C28.144 13.2324 27.946 12.4274 27.621 11.6854C27.3025 10.9586 26.8378 10.305 26.256 9.76538C25.674 9.24038 25.045 8.80538 24.309 8.54238C23.8939 8.398 23.4649 8.2968 23.029 8.24038C23.213 7.89838 23.438 7.58238 23.715 7.29838C23.931 7.08038 24.169 6.89438 24.415 6.73438C24.613 6.80438 24.807 6.88438 24.996 6.97438C25.9151 7.36528 26.7417 7.94517 27.422 8.67638C28.114 9.37438 28.633 10.2854 29.003 11.1824C29.373 12.1424 29.527 13.1474 29.527 14.1074C29.485 15.0966 29.2719 16.071 28.897 16.9874C28.527 17.8404 27.947 18.6274 27.255 19.3254C26.8997 19.6845 26.5056 20.0031 26.08 20.2754L25.661 19.1604V19.1694ZM15.354 33.5164C15.1987 33.4575 15.0459 33.3921 14.896 33.3204C13.9769 32.9295 13.1503 32.3496 12.47 31.6184C11.778 30.9204 11.259 30.0094 10.889 29.1074C10.5378 28.1725 10.3615 27.181 10.369 26.1824C10.4089 25.1929 10.6222 24.2181 10.999 23.3024C11.369 22.4494 11.95 21.6624 12.642 20.9654C12.9698 20.6325 13.3311 20.3342 13.72 20.0754L14.147 21.1954C13.9035 21.3814 13.6726 21.5836 13.456 21.8004C12.919 22.3874 12.443 23.1344 12.184 23.8764C11.862 24.6804 11.752 25.4854 11.752 26.2764C11.752 27.0664 11.95 27.8714 12.276 28.6144C12.5946 29.3412 13.0593 29.9947 13.641 30.5344C14.222 31.0584 14.851 31.4944 15.591 31.7564C15.966 31.8894 16.358 31.9824 16.75 32.0404C16.569 32.369 16.3435 32.6712 16.08 32.9384C15.863 33.1575 15.6207 33.3498 15.358 33.5114M15.653 31.5964C14.918 31.2714 14.333 30.7914 13.813 30.2624C13.337 29.6764 12.91 29.0404 12.646 28.3424C12.3927 27.6432 12.2673 26.904 12.276 26.1604C12.276 25.4054 12.43 24.6584 12.752 24.0224C13.012 23.3424 13.442 22.7524 13.962 22.2724C14.108 22.1384 14.262 22.0184 14.42 21.9024L14.878 23.1124C14.843 23.1474 14.808 23.1784 14.773 23.2184C14.359 23.6494 14.099 24.1164 13.883 24.6584C13.667 25.2004 13.623 25.7874 13.623 26.3164C13.623 26.9064 13.777 27.4314 13.993 27.9114C14.209 28.3914 14.574 28.8274 14.944 29.1964C15.314 29.5204 15.79 29.8454 16.265 30.0004C16.582 30.1114 16.921 30.1704 17.269 30.1964C17.2412 30.8182 17.074 31.4258 16.78 31.9744C16.3915 31.8907 16.0135 31.7639 15.653 31.5964ZM17.19 29.1824C17.256 29.5024 17.278 29.8224 17.269 30.1384C16.9458 30.0732 16.6302 29.975 16.327 29.8454C15.851 29.6454 15.437 29.3204 15.116 28.9474C14.808 28.5604 14.535 28.1424 14.381 27.6624C14.213 27.1824 14.165 26.7024 14.165 26.2224C14.2165 25.3466 14.5732 24.5165 15.173 23.8764L17.19 29.1824ZM11.11 32.9294C10.202 32.0144 9.57702 30.9604 9.10102 29.7874C8.68802 28.6714 8.47102 27.3874 8.47102 26.1654C8.53302 24.9424 8.79302 23.7204 9.26902 22.6054C9.74402 21.4754 10.479 20.4674 11.325 19.6184C11.8394 19.104 12.4162 18.6562 13.042 18.2854L13.368 19.1384C12.87 19.4674 12.408 19.8364 12.003 20.2854C11.2648 21.0664 10.6914 21.988 10.317 22.9954C9.94702 24.0004 9.79702 25.0714 9.79702 26.1384C9.85902 27.1914 10.057 28.2584 10.488 29.2184C10.9165 30.1783 11.5267 31.0463 12.285 31.7744C13.0305 32.4855 13.9048 33.0479 14.861 33.4314C14.997 33.4854 15.134 33.5294 15.271 33.5784C14.6453 33.9491 13.936 34.1555 13.209 34.1784C12.9501 34.1832 12.6915 34.1563 12.439 34.0984C11.9624 33.7535 11.5189 33.3652 11.114 32.9384M30.637 17.6944C30.161 18.8224 29.426 19.8314 28.58 20.6804C28.0376 21.2248 27.4249 21.6943 26.758 22.0764L26.441 21.2264C26.9808 20.8885 27.4737 20.481 27.907 20.0144C28.642 19.2224 29.227 18.3114 29.593 17.3024C29.963 16.2984 30.113 15.2274 30.113 14.1604C30.051 13.1074 29.853 12.0404 29.421 11.0804C28.5671 9.1609 26.9988 7.64968 25.049 6.86738C24.8702 6.79745 24.688 6.7367 24.503 6.68538C25.3941 6.15038 26.4568 5.97852 27.471 6.20538C27.951 6.55138 28.395 6.94238 28.791 7.36538C29.699 8.28038 30.324 9.32938 30.799 10.5074C31.213 11.6224 31.429 12.9074 31.429 14.1294C31.368 15.3514 31.108 16.5784 30.632 17.6894" fill="white"/>
</svg>
