<svg xmlns="http://www.w3.org/2000/svg" width="20.42" height="16.59" viewBox="0 0 20.42 16.59">
  <path id="路径_40" data-name="路径 40" d="M31.01,12.91a8.138,8.138,0,0,1-2.4.66,4.212,4.212,0,0,0,1.84-2.32,8.49,8.49,0,0,1-2.66,1.02,4.191,4.191,0,0,0-7.14,3.82,11.877,11.877,0,0,1-8.63-4.38,4.226,4.226,0,0,0-.57,2.11h0a4.171,4.171,0,0,0,1.86,3.48,4.211,4.211,0,0,1-1.9-.52v.05a4.194,4.194,0,0,0,3.36,4.11,4,4,0,0,1-1.1.15,5.156,5.156,0,0,1-.79-.07,4.214,4.214,0,0,0,3.91,2.91,8.375,8.375,0,0,1-5.2,1.79,8.262,8.262,0,0,1-1-.06A11.916,11.916,0,0,0,28.93,15.62c0-.18,0-.36-.01-.54a8.456,8.456,0,0,0,2.09-2.17Z" transform="translate(-10.59 -10.95)" fill="#1da1f2"/>
</svg>
