<svg xmlns="http://www.w3.org/2000/svg" xmlns:xlink="http://www.w3.org/1999/xlink" width="35" height="35" viewBox="0 0 35 35">
  <defs>
    <linearGradient id="linear-gradient" x1="0.5" y1="1" x2="0.5" gradientUnits="objectBoundingBox">
      <stop offset="0" stop-color="#fd5900"/>
      <stop offset="1" stop-color="#ffde00"/>
    </linearGradient>
    <linearGradient id="linear-gradient-2" x1="0.5" y1="1" x2="0.5" gradientUnits="objectBoundingBox">
      <stop offset="0" stop-color="#ffe59a"/>
      <stop offset="1" stop-color="#ffffd5"/>
    </linearGradient>
  </defs>
  <g id="组_83" data-name="组 83" transform="translate(-277 -1095)">
    <g id="组_80" data-name="组 80" transform="translate(277 1095)">
      <g id="组_79" data-name="组 79" transform="translate(0 0)">
        <path id="路径_35" data-name="路径 35" d="M34.668,18.9a3.12,3.12,0,0,0,0-2.8l-.459-.908a1.051,1.051,0,0,1-.1-.638l.155-1.005a3.119,3.119,0,0,0-.866-2.664l-.717-.722a1.051,1.051,0,0,1-.293-.575l-.163-1a3.12,3.12,0,0,0-1.618-2.251l-.882-.52-.052-.029a1.05,1.05,0,0,1-.456-.457l-.465-.9a3.227,3.227,0,0,0-2.335-1.647l-1-.163a1.051,1.051,0,0,1-.575-.293L24.116,1.6A3.12,3.12,0,0,0,21.452.736L20.447.891a1.051,1.051,0,0,1-.638-.1L18.9.332a3.12,3.12,0,0,0-2.8,0L15.191.79a1.052,1.052,0,0,1-.638.1L13.548.736a3.119,3.119,0,0,0-2.664.866l-.722.717a1.051,1.051,0,0,1-.575.293l-1,.163A3.227,3.227,0,0,0,6.248,4.421l-.465.9a1.051,1.051,0,0,1-.457.457l-.9.465A3.227,3.227,0,0,0,2.775,8.582l-.163,1a1.05,1.05,0,0,1-.293.575l-.717.722a3.12,3.12,0,0,0-.866,2.664l.155,1.006a1.05,1.05,0,0,1-.1.638L.332,16.1a3.12,3.12,0,0,0,0,2.8l.459.908a1.051,1.051,0,0,1,.1.638L.736,21.452A3.12,3.12,0,0,0,1.6,24.116l.717.722a1.05,1.05,0,0,1,.293.575l.163,1a3.227,3.227,0,0,0,1.647,2.335l.9.465a1.051,1.051,0,0,1,.457.457l.465.9a3.227,3.227,0,0,0,2.335,1.647l1,.163a1.051,1.051,0,0,1,.575.293l.722.717a3.12,3.12,0,0,0,2.664.866l1.006-.155a1.051,1.051,0,0,1,.638.1l.908.459a3.12,3.12,0,0,0,2.8,0l.908-.459a1.052,1.052,0,0,1,.638-.1l1.005.155a3.12,3.12,0,0,0,2.664-.866l.722-.717a1.051,1.051,0,0,1,.575-.293l1-.163a3.12,3.12,0,0,0,2.251-1.618l.52-.882c.01-.017.02-.034.029-.052a1.051,1.051,0,0,1,.457-.457l.9-.465a3.12,3.12,0,0,0,1.647-2.266l.163-1a1.051,1.051,0,0,1,.293-.575c.011-.011.735-.809.735-.809a3.12,3.12,0,0,0,.848-2.646l-.155-1.005a1.051,1.051,0,0,1,.1-.638Z" transform="translate(0 0)" fill="url(#linear-gradient)"/>
      </g>
    </g>
    <path id="路径_36" data-name="路径 36" d="M82.479,74.979a7.5,7.5,0,1,0,7.5,7.5,7.532,7.532,0,0,0-7.5-7.5Zm4.332,5.786-1.243,4.972a.622.622,0,0,1-.6.471H79.993a.622.622,0,0,1-.6-.471l-1.243-4.972a.622.622,0,0,1,1.119-.5c.17.25.785.968,1.349.968.1,0,.422-.24.75-.98a5.835,5.835,0,0,0,.493-2.128.622.622,0,0,1,1.243,0,5.835,5.835,0,0,0,.493,2.128c.329.741.647.98.75.98.58,0,1.211-.764,1.349-.968a.622.622,0,0,1,1.119.5Z" transform="translate(212.021 1021.763)" fill="url(#linear-gradient-2)"/>
    <text id="_2" data-name="2" transform="translate(289 1124)" fill="#202124" font-size="20" font-family="Arial-BoldMT, Arial" font-weight="700" letter-spacing="0.025em"><tspan x="0" y="0">2</tspan></text>
  </g>
</svg>
