<svg width="56" height="56" viewBox="0 0 56 56" fill="none" xmlns="http://www.w3.org/2000/svg">
<g filter="url(#filter0_d_1613_4572)">
<path d="M48 42L8 2H29.7284L48 19.0732V42Z" fill="#3756CD"/>
<path d="M29.3505 16.9912C29.2912 16.9317 29.281 16.8621 29.32 16.7822L32.3306 11.3013C32.335 11.2886 32.3458 11.274 32.363 11.2572C32.4188 11.2028 32.4786 11.2075 32.5421 11.2712L33.2796 12.0102C33.3389 12.0697 33.3491 12.1393 33.3101 12.2191L31.0347 16.0799C31.0218 16.1009 31.0216 16.1178 31.0343 16.1305C31.0471 16.1432 31.0641 16.1434 31.0856 16.1309L35.0073 13.9328C35.093 13.8913 35.1655 13.9002 35.2248 13.9597L35.9432 14.6796C35.9813 14.7178 35.996 14.758 35.9871 14.8001C35.9826 14.838 35.9567 14.8673 35.9096 14.8881L30.299 17.7634C30.2176 17.8007 30.1473 17.7897 30.088 17.7302L29.3505 16.9912ZM32.0972 19.7439C32.0252 19.6717 32.0257 19.6 32.0988 19.5288L32.6404 19.0014C32.6877 18.9554 32.7519 18.9306 32.8331 18.9269C33.1831 18.9295 33.563 18.9238 33.9729 18.9099C34.3871 18.8918 34.6647 18.8811 34.8056 18.8779C35.2241 18.8556 35.5336 18.8431 35.7343 18.8404C36.5541 18.8041 37.0694 18.6834 37.28 18.4783C37.4305 18.3319 37.5 18.1595 37.4887 17.9612C37.4816 17.7588 37.3933 17.5726 37.2238 17.4027C37.0542 17.2328 36.8671 17.1429 36.6622 17.133C36.4617 17.1189 36.2819 17.1893 36.1229 17.3441L35.9939 17.4697C35.9208 17.5409 35.8482 17.5403 35.7762 17.4681L35.0896 16.7801C35.0176 16.7079 35.0181 16.6362 35.0912 16.565L35.362 16.3014C35.6069 16.0881 35.8831 15.9615 36.1908 15.9215C36.5027 15.8774 36.814 15.9176 37.1247 16.0421C37.4397 16.1709 37.7328 16.3712 38.004 16.643C38.3049 16.9446 38.5075 17.2623 38.6118 17.5961C38.7247 17.9301 38.7437 18.2507 38.6689 18.558C38.5984 18.8695 38.4449 19.1403 38.2084 19.3706C38.0279 19.5463 37.7985 19.6817 37.5204 19.7767C37.2422 19.8717 36.9045 19.9367 36.5073 19.9718C36.1271 20.007 35.5101 20.0299 34.6563 20.0406C34.6478 20.0406 34.4407 20.0454 34.0351 20.0551C34.0138 20.0508 33.9988 20.057 33.9901 20.0738C33.9858 20.0864 33.9921 20.1012 34.009 20.1182L35.6746 21.7874C35.7466 21.8596 35.7461 21.9312 35.673 22.0024L35.112 22.5486C35.0389 22.6198 34.9664 22.6193 34.8943 22.547L32.0972 19.7439Z" fill="white"/>
</g>
<defs>
<filter id="filter0_d_1613_4572" x="0" y="0" width="56" height="56" filterUnits="userSpaceOnUse" color-interpolation-filters="sRGB">
<feFlood flood-opacity="0" result="BackgroundImageFix"/>
<feColorMatrix in="SourceAlpha" type="matrix" values="0 0 0 0 0 0 0 0 0 0 0 0 0 0 0 0 0 0 127 0" result="hardAlpha"/>
<feOffset dy="6"/>
<feGaussianBlur stdDeviation="4"/>
<feComposite in2="hardAlpha" operator="out"/>
<feColorMatrix type="matrix" values="0 0 0 0 0.0297917 0 0 0 0 0.0685667 0 0 0 0 0.1375 0 0 0 1 0"/>
<feBlend mode="normal" in2="BackgroundImageFix" result="effect1_dropShadow_1613_4572"/>
<feBlend mode="normal" in="SourceGraphic" in2="effect1_dropShadow_1613_4572" result="shape"/>
</filter>
</defs>
</svg>
