<svg width="57" height="57" viewBox="0 0 57 57" fill="none" xmlns="http://www.w3.org/2000/svg">
<g filter="url(#filter0_d_1613_4575)">
<path d="M48.5 43L8 2H30L48.5 19.5V43Z" fill="#7EA2FF"/>
<path d="M29.5755 17.5291C29.5165 17.4693 29.5064 17.3992 29.5452 17.3189L32.538 11.8037C32.5423 11.791 32.553 11.7762 32.5701 11.7594C32.6257 11.7046 32.685 11.7093 32.7482 11.7734L33.4811 12.5169C33.54 12.5768 33.5501 12.6469 33.5114 12.7272L31.2495 16.6121C31.2366 16.6332 31.2365 16.6501 31.2491 16.663C31.2618 16.6758 31.2787 16.6759 31.3 16.6633L35.1981 14.4513C35.2833 14.4095 35.3554 14.4185 35.4143 14.4783L36.1282 15.2026C36.1661 15.2411 36.1807 15.2815 36.1719 15.3239C36.1674 15.362 36.1417 15.3915 36.0949 15.4124L30.5181 18.306C30.4372 18.3436 30.3673 18.3325 30.3083 18.2727L29.5755 17.5291ZM37.068 20.8485C36.9556 21.1277 36.7713 21.3937 36.5149 21.6464C36.2884 21.8696 36.0369 22.0417 35.7602 22.1628C35.3814 22.3255 34.9972 22.363 34.6075 22.2754C34.2178 22.1877 33.8608 21.9794 33.5365 21.6503C33.2164 21.3256 33.0153 20.9592 32.9334 20.5513C32.8557 20.1477 32.9031 19.7556 33.0756 19.375C33.1575 19.1931 33.2926 18.9926 33.4809 18.7733C33.5535 18.7017 33.6256 18.7023 33.6972 18.7749L34.3796 19.4671C34.447 19.5355 34.4485 19.6098 34.3843 19.6899C34.2902 19.7996 34.2172 19.9136 34.1655 20.032C34.0923 20.18 34.0657 20.3283 34.0859 20.4769C34.1145 20.6256 34.1878 20.7598 34.3057 20.8795C34.5416 21.1187 34.8084 21.1801 35.1063 21.0634C35.2934 20.9969 35.4725 20.8794 35.6434 20.7109C35.8272 20.5298 35.958 20.3335 36.0359 20.1219C36.144 19.8299 36.0844 19.5686 35.857 19.3378C35.7812 19.2609 35.6437 19.2026 35.4446 19.163C35.4065 19.15 35.379 19.1349 35.3622 19.1179C35.3285 19.0837 35.3139 19.039 35.3186 18.9839L35.4388 18.1956C35.4433 18.1575 35.4606 18.1236 35.4905 18.0942C35.5161 18.0689 35.5544 18.0564 35.6053 18.0568L37.4626 18.1975C37.4838 18.2019 37.4965 18.1977 37.5009 18.185C37.5095 18.1681 37.5054 18.1511 37.4885 18.134L36.0291 16.6534C35.9575 16.5807 35.958 16.5086 36.0307 16.437L36.5883 15.8874C36.661 15.8158 36.7331 15.8163 36.8047 15.8889L39.376 18.4977C39.4476 18.5704 39.4471 18.6425 39.3745 18.7141L38.7463 19.3332C38.695 19.3838 38.6312 19.4088 38.5549 19.4082L36.9645 19.3204C36.9135 19.32 36.9049 19.3454 36.9385 19.3965C37.2322 19.8399 37.2754 20.3239 37.068 20.8485Z" fill="white"/>
</g>
<defs>
<filter id="filter0_d_1613_4575" x="0" y="0" width="56.5" height="57" filterUnits="userSpaceOnUse" color-interpolation-filters="sRGB">
<feFlood flood-opacity="0" result="BackgroundImageFix"/>
<feColorMatrix in="SourceAlpha" type="matrix" values="0 0 0 0 0 0 0 0 0 0 0 0 0 0 0 0 0 0 127 0" result="hardAlpha"/>
<feOffset dy="6"/>
<feGaussianBlur stdDeviation="4"/>
<feComposite in2="hardAlpha" operator="out"/>
<feColorMatrix type="matrix" values="0 0 0 0 0.0297917 0 0 0 0 0.0685667 0 0 0 0 0.1375 0 0 0 1 0"/>
<feBlend mode="normal" in2="BackgroundImageFix" result="effect1_dropShadow_1613_4575"/>
<feBlend mode="normal" in="SourceGraphic" in2="effect1_dropShadow_1613_4575" result="shape"/>
</filter>
</defs>
</svg>
